<svg version="1.1" baseProfile="full" width="210" height="210" xmlns="http://www.w3.org/2000/svg">
<rect x="0" y="0" width="210" height="210" fill="black"/>
<g transform="translate(5,5)">
<svg version="1.1" baseProfile="full" width="200" height="200" xmlns="http://www.w3.org/2000/svg">
<rect x="0" y="0" width="200" height="200" fill="white"/>
<rect x="0" y="0" width="10" height="10" fill="#81007D"/>
<rect x="10" y="0" width="10" height="10" fill="#EB0013"/>
<rect x="40" y="0" width="10" height="10" fill="#EE0010"/>
<rect x="0" y="10" width="10" height="10" fill="#EB0013"/>
<rect x="10" y="10" width="10" height="10" fill="#5100AD"/>
<rect x="20" y="10" width="10" height="10" fill="#F2000C"/>
<rect x="50" y="10" width="10" height="10" fill="#F70007"/>
<rect x="10" y="20" width="10" height="10" fill="#F2000C"/>
<rect x="20" y="20" width="10" height="10" fill="#4900B5"/>
<rect x="30" y="20" width="10" height="10" fill="#F1000D"/>
<rect x="60" y="20" width="10" height="10" fill="#FA0004"/>
<rect x="20" y="30" width="10" height="10" fill="#F1000D"/>
<rect x="30" y="30" width="10" height="10" fill="#750089"/>
<rect x="70" y="30" width="10" height="10" fill="#F4000A"/>
<rect x="0" y="40" width="10" height="10" fill="#EE0010"/>
<rect x="40" y="40" width="10" height="10" fill="#4F00AF"/>
<rect x="50" y="40" width="10" height="10" fill="#F80006"/>
<rect x="80" y="40" width="10" height="10" fill="#F2000C"/>
<rect x="10" y="50" width="10" height="10" fill="#F70007"/>
<rect x="40" y="50" width="10" height="10" fill="#F80006"/>
<rect x="50" y="50" width="10" height="10" fill="#0A00F4"/>
<rect x="60" y="50" width="10" height="10" fill="#FF0000"/>
<rect x="90" y="50" width="10" height="10" fill="#FB0003"/>
<rect x="20" y="60" width="10" height="10" fill="#FA0004"/>
<rect x="50" y="60" width="10" height="10" fill="#FF0000"/>
<rect x="60" y="60" width="10" height="10" fill="#0000FF"/>
<rect x="70" y="60" width="10" height="10" fill="#FD0001"/>
<rect x="100" y="60" width="10" height="10" fill="#FE0000"/>
<rect x="30" y="70" width="10" height="10" fill="#F4000A"/>
<rect x="60" y="70" width="10" height="10" fill="#FD0001"/>
<rect x="70" y="70" width="10" height="10" fill="#3D00C1"/>
<rect x="110" y="70" width="10" height="10" fill="#F80006"/>
<rect x="40" y="80" width="10" height="10" fill="#F2000C"/>
<rect x="80" y="80" width="10" height="10" fill="#5F009F"/>
<rect x="90" y="80" width="10" height="10" fill="#F1000D"/>
<rect x="120" y="80" width="10" height="10" fill="#E4001A"/>
<rect x="50" y="90" width="10" height="10" fill="#FB0003"/>
<rect x="80" y="90" width="10" height="10" fill="#F1000D"/>
<rect x="90" y="90" width="10" height="10" fill="#2100DD"/>
<rect x="100" y="90" width="10" height="10" fill="#F80006"/>
<rect x="130" y="90" width="10" height="10" fill="#EE0010"/>
<rect x="60" y="100" width="10" height="10" fill="#FE0000"/>
<rect x="90" y="100" width="10" height="10" fill="#F80006"/>
<rect x="100" y="100" width="10" height="10" fill="#1600E8"/>
<rect x="110" y="100" width="10" height="10" fill="#F70007"/>
<rect x="140" y="100" width="10" height="10" fill="#F1000D"/>
<rect x="70" y="110" width="10" height="10" fill="#F80006"/>
<rect x="100" y="110" width="10" height="10" fill="#F70007"/>
<rect x="110" y="110" width="10" height="10" fill="#4D00B1"/>
<rect x="150" y="110" width="10" height="10" fill="#EB0013"/>
<rect x="80" y="120" width="10" height="10" fill="#E4001A"/>
<rect x="120" y="120" width="10" height="10" fill="#870077"/>
<rect x="130" y="120" width="10" height="10" fill="#E2001C"/>
<rect x="160" y="120" width="10" height="10" fill="#D90025"/>
<rect x="90" y="130" width="10" height="10" fill="#EE0010"/>
<rect x="120" y="130" width="10" height="10" fill="#E2001C"/>
<rect x="130" y="130" width="10" height="10" fill="#5700A7"/>
<rect x="140" y="130" width="10" height="10" fill="#E90015"/>
<rect x="170" y="130" width="10" height="10" fill="#E3001B"/>
<rect x="100" y="140" width="10" height="10" fill="#F1000D"/>
<rect x="130" y="140" width="10" height="10" fill="#E90015"/>
<rect x="140" y="140" width="10" height="10" fill="#4C00B2"/>
<rect x="150" y="140" width="10" height="10" fill="#E70017"/>
<rect x="180" y="140" width="10" height="10" fill="#E60018"/>
<rect x="110" y="150" width="10" height="10" fill="#EB0013"/>
<rect x="140" y="150" width="10" height="10" fill="#E70017"/>
<rect x="150" y="150" width="10" height="10" fill="#74008A"/>
<rect x="190" y="150" width="10" height="10" fill="#E0001E"/>
<rect x="120" y="160" width="10" height="10" fill="#D90025"/>
<rect x="160" y="160" width="10" height="10" fill="#A0005E"/>
<rect x="170" y="160" width="10" height="10" fill="#E1001D"/>
<rect x="130" y="170" width="10" height="10" fill="#E3001B"/>
<rect x="160" y="170" width="10" height="10" fill="#E1001D"/>
<rect x="170" y="170" width="10" height="10" fill="#7B0083"/>
<rect x="180" y="170" width="10" height="10" fill="#E80016"/>
<rect x="140" y="180" width="10" height="10" fill="#E60018"/>
<rect x="170" y="180" width="10" height="10" fill="#E80016"/>
<rect x="180" y="180" width="10" height="10" fill="#73008B"/>
<rect x="190" y="180" width="10" height="10" fill="#E60018"/>
<rect x="150" y="190" width="10" height="10" fill="#E0001E"/>
<rect x="180" y="190" width="10" height="10" fill="#E60018"/>
<rect x="190" y="190" width="10" height="10" fill="#94006A"/>
</svg>
</g>
</svg>
