<svg version="1.1" baseProfile="full" width="1260" height="1260" xmlns="http://www.w3.org/2000/svg">
<rect x="0" y="0" width="1260" height="1260" fill="black"/>
<g transform="translate(5,5)">
<svg version="1.1" baseProfile="full" width="1250" height="1250" xmlns="http://www.w3.org/2000/svg">
<rect x="0" y="0" width="1250" height="1250" fill="white"/>
<rect x="0" y="0" width="10" height="10" fill="#000000"/>
<rect x="10" y="0" width="10" height="10" fill="#000000"/>
<rect x="50" y="0" width="10" height="10" fill="#000000"/>
<rect x="250" y="0" width="10" height="10" fill="#000000"/>
<rect x="0" y="10" width="10" height="10" fill="#000000"/>
<rect x="10" y="10" width="10" height="10" fill="#000000"/>
<rect x="20" y="10" width="10" height="10" fill="#000000"/>
<rect x="60" y="10" width="10" height="10" fill="#000000"/>
<rect x="260" y="10" width="10" height="10" fill="#000000"/>
<rect x="10" y="20" width="10" height="10" fill="#000000"/>
<rect x="20" y="20" width="10" height="10" fill="#000000"/>
<rect x="30" y="20" width="10" height="10" fill="#000000"/>
<rect x="70" y="20" width="10" height="10" fill="#000000"/>
<rect x="270" y="20" width="10" height="10" fill="#000000"/>
<rect x="20" y="30" width="10" height="10" fill="#000000"/>
<rect x="30" y="30" width="10" height="10" fill="#000000"/>
<rect x="40" y="30" width="10" height="10" fill="#000000"/>
<rect x="80" y="30" width="10" height="10" fill="#000000"/>
<rect x="280" y="30" width="10" height="10" fill="#000000"/>
<rect x="30" y="40" width="10" height="10" fill="#000000"/>
<rect x="40" y="40" width="10" height="10" fill="#000000"/>
<rect x="90" y="40" width="10" height="10" fill="#000000"/>
<rect x="290" y="40" width="10" height="10" fill="#000000"/>
<rect x="0" y="50" width="10" height="10" fill="#000000"/>
<rect x="50" y="50" width="10" height="10" fill="#000000"/>
<rect x="60" y="50" width="10" height="10" fill="#000000"/>
<rect x="100" y="50" width="10" height="10" fill="#000000"/>
<rect x="300" y="50" width="10" height="10" fill="#000000"/>
<rect x="10" y="60" width="10" height="10" fill="#000000"/>
<rect x="50" y="60" width="10" height="10" fill="#000000"/>
<rect x="60" y="60" width="10" height="10" fill="#000000"/>
<rect x="70" y="60" width="10" height="10" fill="#000000"/>
<rect x="110" y="60" width="10" height="10" fill="#000000"/>
<rect x="310" y="60" width="10" height="10" fill="#000000"/>
<rect x="20" y="70" width="10" height="10" fill="#000000"/>
<rect x="60" y="70" width="10" height="10" fill="#000000"/>
<rect x="70" y="70" width="10" height="10" fill="#000000"/>
<rect x="80" y="70" width="10" height="10" fill="#000000"/>
<rect x="120" y="70" width="10" height="10" fill="#000000"/>
<rect x="320" y="70" width="10" height="10" fill="#000000"/>
<rect x="30" y="80" width="10" height="10" fill="#000000"/>
<rect x="70" y="80" width="10" height="10" fill="#000000"/>
<rect x="80" y="80" width="10" height="10" fill="#000000"/>
<rect x="90" y="80" width="10" height="10" fill="#000000"/>
<rect x="130" y="80" width="10" height="10" fill="#000000"/>
<rect x="330" y="80" width="10" height="10" fill="#000000"/>
<rect x="40" y="90" width="10" height="10" fill="#000000"/>
<rect x="80" y="90" width="10" height="10" fill="#000000"/>
<rect x="90" y="90" width="10" height="10" fill="#000000"/>
<rect x="140" y="90" width="10" height="10" fill="#000000"/>
<rect x="340" y="90" width="10" height="10" fill="#000000"/>
<rect x="50" y="100" width="10" height="10" fill="#000000"/>
<rect x="100" y="100" width="10" height="10" fill="#000000"/>
<rect x="110" y="100" width="10" height="10" fill="#000000"/>
<rect x="150" y="100" width="10" height="10" fill="#000000"/>
<rect x="350" y="100" width="10" height="10" fill="#000000"/>
<rect x="60" y="110" width="10" height="10" fill="#000000"/>
<rect x="100" y="110" width="10" height="10" fill="#000000"/>
<rect x="110" y="110" width="10" height="10" fill="#000000"/>
<rect x="120" y="110" width="10" height="10" fill="#000000"/>
<rect x="160" y="110" width="10" height="10" fill="#000000"/>
<rect x="360" y="110" width="10" height="10" fill="#000000"/>
<rect x="70" y="120" width="10" height="10" fill="#000000"/>
<rect x="110" y="120" width="10" height="10" fill="#000000"/>
<rect x="120" y="120" width="10" height="10" fill="#000000"/>
<rect x="130" y="120" width="10" height="10" fill="#000000"/>
<rect x="170" y="120" width="10" height="10" fill="#000000"/>
<rect x="370" y="120" width="10" height="10" fill="#000000"/>
<rect x="80" y="130" width="10" height="10" fill="#000000"/>
<rect x="120" y="130" width="10" height="10" fill="#000000"/>
<rect x="130" y="130" width="10" height="10" fill="#000000"/>
<rect x="140" y="130" width="10" height="10" fill="#000000"/>
<rect x="180" y="130" width="10" height="10" fill="#000000"/>
<rect x="380" y="130" width="10" height="10" fill="#000000"/>
<rect x="90" y="140" width="10" height="10" fill="#000000"/>
<rect x="130" y="140" width="10" height="10" fill="#000000"/>
<rect x="140" y="140" width="10" height="10" fill="#000000"/>
<rect x="190" y="140" width="10" height="10" fill="#000000"/>
<rect x="390" y="140" width="10" height="10" fill="#000000"/>
<rect x="100" y="150" width="10" height="10" fill="#000000"/>
<rect x="150" y="150" width="10" height="10" fill="#000000"/>
<rect x="160" y="150" width="10" height="10" fill="#000000"/>
<rect x="200" y="150" width="10" height="10" fill="#000000"/>
<rect x="400" y="150" width="10" height="10" fill="#000000"/>
<rect x="110" y="160" width="10" height="10" fill="#000000"/>
<rect x="150" y="160" width="10" height="10" fill="#000000"/>
<rect x="160" y="160" width="10" height="10" fill="#000000"/>
<rect x="170" y="160" width="10" height="10" fill="#000000"/>
<rect x="210" y="160" width="10" height="10" fill="#000000"/>
<rect x="410" y="160" width="10" height="10" fill="#000000"/>
<rect x="120" y="170" width="10" height="10" fill="#000000"/>
<rect x="160" y="170" width="10" height="10" fill="#000000"/>
<rect x="170" y="170" width="10" height="10" fill="#000000"/>
<rect x="180" y="170" width="10" height="10" fill="#000000"/>
<rect x="220" y="170" width="10" height="10" fill="#000000"/>
<rect x="420" y="170" width="10" height="10" fill="#000000"/>
<rect x="130" y="180" width="10" height="10" fill="#000000"/>
<rect x="170" y="180" width="10" height="10" fill="#000000"/>
<rect x="180" y="180" width="10" height="10" fill="#000000"/>
<rect x="190" y="180" width="10" height="10" fill="#000000"/>
<rect x="230" y="180" width="10" height="10" fill="#000000"/>
<rect x="430" y="180" width="10" height="10" fill="#000000"/>
<rect x="140" y="190" width="10" height="10" fill="#000000"/>
<rect x="180" y="190" width="10" height="10" fill="#000000"/>
<rect x="190" y="190" width="10" height="10" fill="#000000"/>
<rect x="240" y="190" width="10" height="10" fill="#000000"/>
<rect x="440" y="190" width="10" height="10" fill="#000000"/>
<rect x="150" y="200" width="10" height="10" fill="#000000"/>
<rect x="200" y="200" width="10" height="10" fill="#000000"/>
<rect x="210" y="200" width="10" height="10" fill="#000000"/>
<rect x="450" y="200" width="10" height="10" fill="#000000"/>
<rect x="160" y="210" width="10" height="10" fill="#000000"/>
<rect x="200" y="210" width="10" height="10" fill="#000000"/>
<rect x="210" y="210" width="10" height="10" fill="#000000"/>
<rect x="220" y="210" width="10" height="10" fill="#000000"/>
<rect x="460" y="210" width="10" height="10" fill="#000000"/>
<rect x="170" y="220" width="10" height="10" fill="#000000"/>
<rect x="210" y="220" width="10" height="10" fill="#000000"/>
<rect x="220" y="220" width="10" height="10" fill="#000000"/>
<rect x="230" y="220" width="10" height="10" fill="#000000"/>
<rect x="470" y="220" width="10" height="10" fill="#000000"/>
<rect x="180" y="230" width="10" height="10" fill="#000000"/>
<rect x="220" y="230" width="10" height="10" fill="#000000"/>
<rect x="230" y="230" width="10" height="10" fill="#000000"/>
<rect x="240" y="230" width="10" height="10" fill="#000000"/>
<rect x="480" y="230" width="10" height="10" fill="#000000"/>
<rect x="190" y="240" width="10" height="10" fill="#000000"/>
<rect x="230" y="240" width="10" height="10" fill="#000000"/>
<rect x="240" y="240" width="10" height="10" fill="#000000"/>
<rect x="490" y="240" width="10" height="10" fill="#000000"/>
<rect x="0" y="250" width="10" height="10" fill="#000000"/>
<rect x="250" y="250" width="10" height="10" fill="#000000"/>
<rect x="260" y="250" width="10" height="10" fill="#000000"/>
<rect x="300" y="250" width="10" height="10" fill="#000000"/>
<rect x="500" y="250" width="10" height="10" fill="#000000"/>
<rect x="10" y="260" width="10" height="10" fill="#000000"/>
<rect x="250" y="260" width="10" height="10" fill="#000000"/>
<rect x="260" y="260" width="10" height="10" fill="#000000"/>
<rect x="270" y="260" width="10" height="10" fill="#000000"/>
<rect x="310" y="260" width="10" height="10" fill="#000000"/>
<rect x="510" y="260" width="10" height="10" fill="#000000"/>
<rect x="20" y="270" width="10" height="10" fill="#000000"/>
<rect x="260" y="270" width="10" height="10" fill="#000000"/>
<rect x="270" y="270" width="10" height="10" fill="#000000"/>
<rect x="280" y="270" width="10" height="10" fill="#000000"/>
<rect x="320" y="270" width="10" height="10" fill="#000000"/>
<rect x="520" y="270" width="10" height="10" fill="#000000"/>
<rect x="30" y="280" width="10" height="10" fill="#000000"/>
<rect x="270" y="280" width="10" height="10" fill="#000000"/>
<rect x="280" y="280" width="10" height="10" fill="#000000"/>
<rect x="290" y="280" width="10" height="10" fill="#000000"/>
<rect x="330" y="280" width="10" height="10" fill="#000000"/>
<rect x="530" y="280" width="10" height="10" fill="#000000"/>
<rect x="40" y="290" width="10" height="10" fill="#000000"/>
<rect x="280" y="290" width="10" height="10" fill="#000000"/>
<rect x="290" y="290" width="10" height="10" fill="#000000"/>
<rect x="340" y="290" width="10" height="10" fill="#000000"/>
<rect x="540" y="290" width="10" height="10" fill="#000000"/>
<rect x="50" y="300" width="10" height="10" fill="#000000"/>
<rect x="250" y="300" width="10" height="10" fill="#000000"/>
<rect x="300" y="300" width="10" height="10" fill="#000000"/>
<rect x="310" y="300" width="10" height="10" fill="#000000"/>
<rect x="350" y="300" width="10" height="10" fill="#000000"/>
<rect x="550" y="300" width="10" height="10" fill="#000000"/>
<rect x="60" y="310" width="10" height="10" fill="#000000"/>
<rect x="260" y="310" width="10" height="10" fill="#000000"/>
<rect x="300" y="310" width="10" height="10" fill="#000000"/>
<rect x="310" y="310" width="10" height="10" fill="#000000"/>
<rect x="320" y="310" width="10" height="10" fill="#000000"/>
<rect x="360" y="310" width="10" height="10" fill="#000000"/>
<rect x="560" y="310" width="10" height="10" fill="#000000"/>
<rect x="70" y="320" width="10" height="10" fill="#000000"/>
<rect x="270" y="320" width="10" height="10" fill="#000000"/>
<rect x="310" y="320" width="10" height="10" fill="#000000"/>
<rect x="320" y="320" width="10" height="10" fill="#000000"/>
<rect x="330" y="320" width="10" height="10" fill="#000000"/>
<rect x="370" y="320" width="10" height="10" fill="#000000"/>
<rect x="570" y="320" width="10" height="10" fill="#000000"/>
<rect x="80" y="330" width="10" height="10" fill="#000000"/>
<rect x="280" y="330" width="10" height="10" fill="#000000"/>
<rect x="320" y="330" width="10" height="10" fill="#000000"/>
<rect x="330" y="330" width="10" height="10" fill="#000000"/>
<rect x="340" y="330" width="10" height="10" fill="#000000"/>
<rect x="380" y="330" width="10" height="10" fill="#000000"/>
<rect x="580" y="330" width="10" height="10" fill="#000000"/>
<rect x="90" y="340" width="10" height="10" fill="#000000"/>
<rect x="290" y="340" width="10" height="10" fill="#000000"/>
<rect x="330" y="340" width="10" height="10" fill="#000000"/>
<rect x="340" y="340" width="10" height="10" fill="#000000"/>
<rect x="390" y="340" width="10" height="10" fill="#000000"/>
<rect x="590" y="340" width="10" height="10" fill="#000000"/>
<rect x="100" y="350" width="10" height="10" fill="#000000"/>
<rect x="300" y="350" width="10" height="10" fill="#000000"/>
<rect x="350" y="350" width="10" height="10" fill="#000000"/>
<rect x="360" y="350" width="10" height="10" fill="#000000"/>
<rect x="400" y="350" width="10" height="10" fill="#000000"/>
<rect x="600" y="350" width="10" height="10" fill="#000000"/>
<rect x="110" y="360" width="10" height="10" fill="#000000"/>
<rect x="310" y="360" width="10" height="10" fill="#000000"/>
<rect x="350" y="360" width="10" height="10" fill="#000000"/>
<rect x="360" y="360" width="10" height="10" fill="#000000"/>
<rect x="370" y="360" width="10" height="10" fill="#000000"/>
<rect x="410" y="360" width="10" height="10" fill="#000000"/>
<rect x="610" y="360" width="10" height="10" fill="#000000"/>
<rect x="120" y="370" width="10" height="10" fill="#000000"/>
<rect x="320" y="370" width="10" height="10" fill="#000000"/>
<rect x="360" y="370" width="10" height="10" fill="#000000"/>
<rect x="370" y="370" width="10" height="10" fill="#000000"/>
<rect x="380" y="370" width="10" height="10" fill="#000000"/>
<rect x="420" y="370" width="10" height="10" fill="#000000"/>
<rect x="620" y="370" width="10" height="10" fill="#000000"/>
<rect x="130" y="380" width="10" height="10" fill="#000000"/>
<rect x="330" y="380" width="10" height="10" fill="#000000"/>
<rect x="370" y="380" width="10" height="10" fill="#000000"/>
<rect x="380" y="380" width="10" height="10" fill="#000000"/>
<rect x="390" y="380" width="10" height="10" fill="#000000"/>
<rect x="430" y="380" width="10" height="10" fill="#000000"/>
<rect x="630" y="380" width="10" height="10" fill="#000000"/>
<rect x="140" y="390" width="10" height="10" fill="#000000"/>
<rect x="340" y="390" width="10" height="10" fill="#000000"/>
<rect x="380" y="390" width="10" height="10" fill="#000000"/>
<rect x="390" y="390" width="10" height="10" fill="#000000"/>
<rect x="440" y="390" width="10" height="10" fill="#000000"/>
<rect x="640" y="390" width="10" height="10" fill="#000000"/>
<rect x="150" y="400" width="10" height="10" fill="#000000"/>
<rect x="350" y="400" width="10" height="10" fill="#000000"/>
<rect x="400" y="400" width="10" height="10" fill="#000000"/>
<rect x="410" y="400" width="10" height="10" fill="#000000"/>
<rect x="450" y="400" width="10" height="10" fill="#000000"/>
<rect x="650" y="400" width="10" height="10" fill="#000000"/>
<rect x="160" y="410" width="10" height="10" fill="#000000"/>
<rect x="360" y="410" width="10" height="10" fill="#000000"/>
<rect x="400" y="410" width="10" height="10" fill="#000000"/>
<rect x="410" y="410" width="10" height="10" fill="#000000"/>
<rect x="420" y="410" width="10" height="10" fill="#000000"/>
<rect x="460" y="410" width="10" height="10" fill="#000000"/>
<rect x="660" y="410" width="10" height="10" fill="#000000"/>
<rect x="170" y="420" width="10" height="10" fill="#000000"/>
<rect x="370" y="420" width="10" height="10" fill="#000000"/>
<rect x="410" y="420" width="10" height="10" fill="#000000"/>
<rect x="420" y="420" width="10" height="10" fill="#000000"/>
<rect x="430" y="420" width="10" height="10" fill="#000000"/>
<rect x="470" y="420" width="10" height="10" fill="#000000"/>
<rect x="670" y="420" width="10" height="10" fill="#000000"/>
<rect x="180" y="430" width="10" height="10" fill="#000000"/>
<rect x="380" y="430" width="10" height="10" fill="#000000"/>
<rect x="420" y="430" width="10" height="10" fill="#000000"/>
<rect x="430" y="430" width="10" height="10" fill="#000000"/>
<rect x="440" y="430" width="10" height="10" fill="#000000"/>
<rect x="480" y="430" width="10" height="10" fill="#000000"/>
<rect x="680" y="430" width="10" height="10" fill="#000000"/>
<rect x="190" y="440" width="10" height="10" fill="#000000"/>
<rect x="390" y="440" width="10" height="10" fill="#000000"/>
<rect x="430" y="440" width="10" height="10" fill="#000000"/>
<rect x="440" y="440" width="10" height="10" fill="#000000"/>
<rect x="490" y="440" width="10" height="10" fill="#000000"/>
<rect x="690" y="440" width="10" height="10" fill="#000000"/>
<rect x="200" y="450" width="10" height="10" fill="#000000"/>
<rect x="400" y="450" width="10" height="10" fill="#000000"/>
<rect x="450" y="450" width="10" height="10" fill="#000000"/>
<rect x="460" y="450" width="10" height="10" fill="#000000"/>
<rect x="700" y="450" width="10" height="10" fill="#000000"/>
<rect x="210" y="460" width="10" height="10" fill="#000000"/>
<rect x="410" y="460" width="10" height="10" fill="#000000"/>
<rect x="450" y="460" width="10" height="10" fill="#000000"/>
<rect x="460" y="460" width="10" height="10" fill="#000000"/>
<rect x="470" y="460" width="10" height="10" fill="#000000"/>
<rect x="710" y="460" width="10" height="10" fill="#000000"/>
<rect x="220" y="470" width="10" height="10" fill="#000000"/>
<rect x="420" y="470" width="10" height="10" fill="#000000"/>
<rect x="460" y="470" width="10" height="10" fill="#000000"/>
<rect x="470" y="470" width="10" height="10" fill="#000000"/>
<rect x="480" y="470" width="10" height="10" fill="#000000"/>
<rect x="720" y="470" width="10" height="10" fill="#000000"/>
<rect x="230" y="480" width="10" height="10" fill="#000000"/>
<rect x="430" y="480" width="10" height="10" fill="#000000"/>
<rect x="470" y="480" width="10" height="10" fill="#000000"/>
<rect x="480" y="480" width="10" height="10" fill="#000000"/>
<rect x="490" y="480" width="10" height="10" fill="#000000"/>
<rect x="730" y="480" width="10" height="10" fill="#000000"/>
<rect x="240" y="490" width="10" height="10" fill="#000000"/>
<rect x="440" y="490" width="10" height="10" fill="#000000"/>
<rect x="480" y="490" width="10" height="10" fill="#000000"/>
<rect x="490" y="490" width="10" height="10" fill="#000000"/>
<rect x="740" y="490" width="10" height="10" fill="#000000"/>
<rect x="250" y="500" width="10" height="10" fill="#000000"/>
<rect x="500" y="500" width="10" height="10" fill="#000000"/>
<rect x="510" y="500" width="10" height="10" fill="#000000"/>
<rect x="550" y="500" width="10" height="10" fill="#000000"/>
<rect x="750" y="500" width="10" height="10" fill="#000000"/>
<rect x="260" y="510" width="10" height="10" fill="#000000"/>
<rect x="500" y="510" width="10" height="10" fill="#000000"/>
<rect x="510" y="510" width="10" height="10" fill="#000000"/>
<rect x="520" y="510" width="10" height="10" fill="#000000"/>
<rect x="560" y="510" width="10" height="10" fill="#000000"/>
<rect x="760" y="510" width="10" height="10" fill="#000000"/>
<rect x="270" y="520" width="10" height="10" fill="#000000"/>
<rect x="510" y="520" width="10" height="10" fill="#000000"/>
<rect x="520" y="520" width="10" height="10" fill="#000000"/>
<rect x="530" y="520" width="10" height="10" fill="#000000"/>
<rect x="570" y="520" width="10" height="10" fill="#000000"/>
<rect x="770" y="520" width="10" height="10" fill="#000000"/>
<rect x="280" y="530" width="10" height="10" fill="#000000"/>
<rect x="520" y="530" width="10" height="10" fill="#000000"/>
<rect x="530" y="530" width="10" height="10" fill="#000000"/>
<rect x="540" y="530" width="10" height="10" fill="#000000"/>
<rect x="580" y="530" width="10" height="10" fill="#000000"/>
<rect x="780" y="530" width="10" height="10" fill="#000000"/>
<rect x="290" y="540" width="10" height="10" fill="#000000"/>
<rect x="530" y="540" width="10" height="10" fill="#000000"/>
<rect x="540" y="540" width="10" height="10" fill="#000000"/>
<rect x="590" y="540" width="10" height="10" fill="#000000"/>
<rect x="790" y="540" width="10" height="10" fill="#000000"/>
<rect x="300" y="550" width="10" height="10" fill="#000000"/>
<rect x="500" y="550" width="10" height="10" fill="#000000"/>
<rect x="550" y="550" width="10" height="10" fill="#000000"/>
<rect x="560" y="550" width="10" height="10" fill="#000000"/>
<rect x="600" y="550" width="10" height="10" fill="#000000"/>
<rect x="800" y="550" width="10" height="10" fill="#000000"/>
<rect x="310" y="560" width="10" height="10" fill="#000000"/>
<rect x="510" y="560" width="10" height="10" fill="#000000"/>
<rect x="550" y="560" width="10" height="10" fill="#000000"/>
<rect x="560" y="560" width="10" height="10" fill="#000000"/>
<rect x="570" y="560" width="10" height="10" fill="#000000"/>
<rect x="610" y="560" width="10" height="10" fill="#000000"/>
<rect x="810" y="560" width="10" height="10" fill="#000000"/>
<rect x="320" y="570" width="10" height="10" fill="#000000"/>
<rect x="520" y="570" width="10" height="10" fill="#000000"/>
<rect x="560" y="570" width="10" height="10" fill="#000000"/>
<rect x="570" y="570" width="10" height="10" fill="#000000"/>
<rect x="580" y="570" width="10" height="10" fill="#000000"/>
<rect x="620" y="570" width="10" height="10" fill="#000000"/>
<rect x="820" y="570" width="10" height="10" fill="#000000"/>
<rect x="330" y="580" width="10" height="10" fill="#000000"/>
<rect x="530" y="580" width="10" height="10" fill="#000000"/>
<rect x="570" y="580" width="10" height="10" fill="#000000"/>
<rect x="580" y="580" width="10" height="10" fill="#000000"/>
<rect x="590" y="580" width="10" height="10" fill="#000000"/>
<rect x="630" y="580" width="10" height="10" fill="#000000"/>
<rect x="830" y="580" width="10" height="10" fill="#000000"/>
<rect x="340" y="590" width="10" height="10" fill="#000000"/>
<rect x="540" y="590" width="10" height="10" fill="#000000"/>
<rect x="580" y="590" width="10" height="10" fill="#000000"/>
<rect x="590" y="590" width="10" height="10" fill="#000000"/>
<rect x="640" y="590" width="10" height="10" fill="#000000"/>
<rect x="840" y="590" width="10" height="10" fill="#000000"/>
<rect x="350" y="600" width="10" height="10" fill="#000000"/>
<rect x="550" y="600" width="10" height="10" fill="#000000"/>
<rect x="600" y="600" width="10" height="10" fill="#000000"/>
<rect x="610" y="600" width="10" height="10" fill="#000000"/>
<rect x="650" y="600" width="10" height="10" fill="#000000"/>
<rect x="850" y="600" width="10" height="10" fill="#000000"/>
<rect x="360" y="610" width="10" height="10" fill="#000000"/>
<rect x="560" y="610" width="10" height="10" fill="#000000"/>
<rect x="600" y="610" width="10" height="10" fill="#000000"/>
<rect x="610" y="610" width="10" height="10" fill="#000000"/>
<rect x="620" y="610" width="10" height="10" fill="#000000"/>
<rect x="660" y="610" width="10" height="10" fill="#000000"/>
<rect x="860" y="610" width="10" height="10" fill="#000000"/>
<rect x="370" y="620" width="10" height="10" fill="#000000"/>
<rect x="570" y="620" width="10" height="10" fill="#000000"/>
<rect x="610" y="620" width="10" height="10" fill="#000000"/>
<rect x="620" y="620" width="10" height="10" fill="#000000"/>
<rect x="630" y="620" width="10" height="10" fill="#000000"/>
<rect x="670" y="620" width="10" height="10" fill="#000000"/>
<rect x="870" y="620" width="10" height="10" fill="#000000"/>
<rect x="380" y="630" width="10" height="10" fill="#000000"/>
<rect x="580" y="630" width="10" height="10" fill="#000000"/>
<rect x="620" y="630" width="10" height="10" fill="#000000"/>
<rect x="630" y="630" width="10" height="10" fill="#000000"/>
<rect x="640" y="630" width="10" height="10" fill="#000000"/>
<rect x="680" y="630" width="10" height="10" fill="#000000"/>
<rect x="880" y="630" width="10" height="10" fill="#000000"/>
<rect x="390" y="640" width="10" height="10" fill="#000000"/>
<rect x="590" y="640" width="10" height="10" fill="#000000"/>
<rect x="630" y="640" width="10" height="10" fill="#000000"/>
<rect x="640" y="640" width="10" height="10" fill="#000000"/>
<rect x="690" y="640" width="10" height="10" fill="#000000"/>
<rect x="890" y="640" width="10" height="10" fill="#000000"/>
<rect x="400" y="650" width="10" height="10" fill="#000000"/>
<rect x="600" y="650" width="10" height="10" fill="#000000"/>
<rect x="650" y="650" width="10" height="10" fill="#000000"/>
<rect x="660" y="650" width="10" height="10" fill="#000000"/>
<rect x="700" y="650" width="10" height="10" fill="#000000"/>
<rect x="900" y="650" width="10" height="10" fill="#000000"/>
<rect x="410" y="660" width="10" height="10" fill="#000000"/>
<rect x="610" y="660" width="10" height="10" fill="#000000"/>
<rect x="650" y="660" width="10" height="10" fill="#000000"/>
<rect x="660" y="660" width="10" height="10" fill="#000000"/>
<rect x="670" y="660" width="10" height="10" fill="#000000"/>
<rect x="710" y="660" width="10" height="10" fill="#000000"/>
<rect x="910" y="660" width="10" height="10" fill="#000000"/>
<rect x="420" y="670" width="10" height="10" fill="#000000"/>
<rect x="620" y="670" width="10" height="10" fill="#000000"/>
<rect x="660" y="670" width="10" height="10" fill="#000000"/>
<rect x="670" y="670" width="10" height="10" fill="#000000"/>
<rect x="680" y="670" width="10" height="10" fill="#000000"/>
<rect x="720" y="670" width="10" height="10" fill="#000000"/>
<rect x="920" y="670" width="10" height="10" fill="#000000"/>
<rect x="430" y="680" width="10" height="10" fill="#000000"/>
<rect x="630" y="680" width="10" height="10" fill="#000000"/>
<rect x="670" y="680" width="10" height="10" fill="#000000"/>
<rect x="680" y="680" width="10" height="10" fill="#000000"/>
<rect x="690" y="680" width="10" height="10" fill="#000000"/>
<rect x="730" y="680" width="10" height="10" fill="#000000"/>
<rect x="930" y="680" width="10" height="10" fill="#000000"/>
<rect x="440" y="690" width="10" height="10" fill="#000000"/>
<rect x="640" y="690" width="10" height="10" fill="#000000"/>
<rect x="680" y="690" width="10" height="10" fill="#000000"/>
<rect x="690" y="690" width="10" height="10" fill="#000000"/>
<rect x="740" y="690" width="10" height="10" fill="#000000"/>
<rect x="940" y="690" width="10" height="10" fill="#000000"/>
<rect x="450" y="700" width="10" height="10" fill="#000000"/>
<rect x="650" y="700" width="10" height="10" fill="#000000"/>
<rect x="700" y="700" width="10" height="10" fill="#000000"/>
<rect x="710" y="700" width="10" height="10" fill="#000000"/>
<rect x="950" y="700" width="10" height="10" fill="#000000"/>
<rect x="460" y="710" width="10" height="10" fill="#000000"/>
<rect x="660" y="710" width="10" height="10" fill="#000000"/>
<rect x="700" y="710" width="10" height="10" fill="#000000"/>
<rect x="710" y="710" width="10" height="10" fill="#000000"/>
<rect x="720" y="710" width="10" height="10" fill="#000000"/>
<rect x="960" y="710" width="10" height="10" fill="#000000"/>
<rect x="470" y="720" width="10" height="10" fill="#000000"/>
<rect x="670" y="720" width="10" height="10" fill="#000000"/>
<rect x="710" y="720" width="10" height="10" fill="#000000"/>
<rect x="720" y="720" width="10" height="10" fill="#000000"/>
<rect x="730" y="720" width="10" height="10" fill="#000000"/>
<rect x="970" y="720" width="10" height="10" fill="#000000"/>
<rect x="480" y="730" width="10" height="10" fill="#000000"/>
<rect x="680" y="730" width="10" height="10" fill="#000000"/>
<rect x="720" y="730" width="10" height="10" fill="#000000"/>
<rect x="730" y="730" width="10" height="10" fill="#000000"/>
<rect x="740" y="730" width="10" height="10" fill="#000000"/>
<rect x="980" y="730" width="10" height="10" fill="#000000"/>
<rect x="490" y="740" width="10" height="10" fill="#000000"/>
<rect x="690" y="740" width="10" height="10" fill="#000000"/>
<rect x="730" y="740" width="10" height="10" fill="#000000"/>
<rect x="740" y="740" width="10" height="10" fill="#000000"/>
<rect x="990" y="740" width="10" height="10" fill="#000000"/>
<rect x="500" y="750" width="10" height="10" fill="#000000"/>
<rect x="750" y="750" width="10" height="10" fill="#000000"/>
<rect x="760" y="750" width="10" height="10" fill="#000000"/>
<rect x="800" y="750" width="10" height="10" fill="#000000"/>
<rect x="1000" y="750" width="10" height="10" fill="#000000"/>
<rect x="510" y="760" width="10" height="10" fill="#000000"/>
<rect x="750" y="760" width="10" height="10" fill="#000000"/>
<rect x="760" y="760" width="10" height="10" fill="#000000"/>
<rect x="770" y="760" width="10" height="10" fill="#000000"/>
<rect x="810" y="760" width="10" height="10" fill="#000000"/>
<rect x="1010" y="760" width="10" height="10" fill="#000000"/>
<rect x="520" y="770" width="10" height="10" fill="#000000"/>
<rect x="760" y="770" width="10" height="10" fill="#000000"/>
<rect x="770" y="770" width="10" height="10" fill="#000000"/>
<rect x="780" y="770" width="10" height="10" fill="#000000"/>
<rect x="820" y="770" width="10" height="10" fill="#000000"/>
<rect x="1020" y="770" width="10" height="10" fill="#000000"/>
<rect x="530" y="780" width="10" height="10" fill="#000000"/>
<rect x="770" y="780" width="10" height="10" fill="#000000"/>
<rect x="780" y="780" width="10" height="10" fill="#000000"/>
<rect x="790" y="780" width="10" height="10" fill="#000000"/>
<rect x="830" y="780" width="10" height="10" fill="#000000"/>
<rect x="1030" y="780" width="10" height="10" fill="#000000"/>
<rect x="540" y="790" width="10" height="10" fill="#000000"/>
<rect x="780" y="790" width="10" height="10" fill="#000000"/>
<rect x="790" y="790" width="10" height="10" fill="#000000"/>
<rect x="840" y="790" width="10" height="10" fill="#000000"/>
<rect x="1040" y="790" width="10" height="10" fill="#000000"/>
<rect x="550" y="800" width="10" height="10" fill="#000000"/>
<rect x="750" y="800" width="10" height="10" fill="#000000"/>
<rect x="800" y="800" width="10" height="10" fill="#000000"/>
<rect x="810" y="800" width="10" height="10" fill="#000000"/>
<rect x="850" y="800" width="10" height="10" fill="#000000"/>
<rect x="1050" y="800" width="10" height="10" fill="#000000"/>
<rect x="560" y="810" width="10" height="10" fill="#000000"/>
<rect x="760" y="810" width="10" height="10" fill="#000000"/>
<rect x="800" y="810" width="10" height="10" fill="#000000"/>
<rect x="810" y="810" width="10" height="10" fill="#000000"/>
<rect x="820" y="810" width="10" height="10" fill="#000000"/>
<rect x="860" y="810" width="10" height="10" fill="#000000"/>
<rect x="1060" y="810" width="10" height="10" fill="#000000"/>
<rect x="570" y="820" width="10" height="10" fill="#000000"/>
<rect x="770" y="820" width="10" height="10" fill="#000000"/>
<rect x="810" y="820" width="10" height="10" fill="#000000"/>
<rect x="820" y="820" width="10" height="10" fill="#000000"/>
<rect x="830" y="820" width="10" height="10" fill="#000000"/>
<rect x="870" y="820" width="10" height="10" fill="#000000"/>
<rect x="1070" y="820" width="10" height="10" fill="#000000"/>
<rect x="580" y="830" width="10" height="10" fill="#000000"/>
<rect x="780" y="830" width="10" height="10" fill="#000000"/>
<rect x="820" y="830" width="10" height="10" fill="#000000"/>
<rect x="830" y="830" width="10" height="10" fill="#000000"/>
<rect x="840" y="830" width="10" height="10" fill="#000000"/>
<rect x="880" y="830" width="10" height="10" fill="#000000"/>
<rect x="1080" y="830" width="10" height="10" fill="#000000"/>
<rect x="590" y="840" width="10" height="10" fill="#000000"/>
<rect x="790" y="840" width="10" height="10" fill="#000000"/>
<rect x="830" y="840" width="10" height="10" fill="#000000"/>
<rect x="840" y="840" width="10" height="10" fill="#000000"/>
<rect x="890" y="840" width="10" height="10" fill="#000000"/>
<rect x="1090" y="840" width="10" height="10" fill="#000000"/>
<rect x="600" y="850" width="10" height="10" fill="#000000"/>
<rect x="800" y="850" width="10" height="10" fill="#000000"/>
<rect x="850" y="850" width="10" height="10" fill="#000000"/>
<rect x="860" y="850" width="10" height="10" fill="#000000"/>
<rect x="900" y="850" width="10" height="10" fill="#000000"/>
<rect x="1100" y="850" width="10" height="10" fill="#000000"/>
<rect x="610" y="860" width="10" height="10" fill="#000000"/>
<rect x="810" y="860" width="10" height="10" fill="#000000"/>
<rect x="850" y="860" width="10" height="10" fill="#000000"/>
<rect x="860" y="860" width="10" height="10" fill="#000000"/>
<rect x="870" y="860" width="10" height="10" fill="#000000"/>
<rect x="910" y="860" width="10" height="10" fill="#000000"/>
<rect x="1110" y="860" width="10" height="10" fill="#000000"/>
<rect x="620" y="870" width="10" height="10" fill="#000000"/>
<rect x="820" y="870" width="10" height="10" fill="#000000"/>
<rect x="860" y="870" width="10" height="10" fill="#000000"/>
<rect x="870" y="870" width="10" height="10" fill="#000000"/>
<rect x="880" y="870" width="10" height="10" fill="#000000"/>
<rect x="920" y="870" width="10" height="10" fill="#000000"/>
<rect x="1120" y="870" width="10" height="10" fill="#000000"/>
<rect x="630" y="880" width="10" height="10" fill="#000000"/>
<rect x="830" y="880" width="10" height="10" fill="#000000"/>
<rect x="870" y="880" width="10" height="10" fill="#000000"/>
<rect x="880" y="880" width="10" height="10" fill="#000000"/>
<rect x="890" y="880" width="10" height="10" fill="#000000"/>
<rect x="930" y="880" width="10" height="10" fill="#000000"/>
<rect x="1130" y="880" width="10" height="10" fill="#000000"/>
<rect x="640" y="890" width="10" height="10" fill="#000000"/>
<rect x="840" y="890" width="10" height="10" fill="#000000"/>
<rect x="880" y="890" width="10" height="10" fill="#000000"/>
<rect x="890" y="890" width="10" height="10" fill="#000000"/>
<rect x="940" y="890" width="10" height="10" fill="#000000"/>
<rect x="1140" y="890" width="10" height="10" fill="#000000"/>
<rect x="650" y="900" width="10" height="10" fill="#000000"/>
<rect x="850" y="900" width="10" height="10" fill="#000000"/>
<rect x="900" y="900" width="10" height="10" fill="#000000"/>
<rect x="910" y="900" width="10" height="10" fill="#000000"/>
<rect x="950" y="900" width="10" height="10" fill="#000000"/>
<rect x="1150" y="900" width="10" height="10" fill="#000000"/>
<rect x="660" y="910" width="10" height="10" fill="#000000"/>
<rect x="860" y="910" width="10" height="10" fill="#000000"/>
<rect x="900" y="910" width="10" height="10" fill="#000000"/>
<rect x="910" y="910" width="10" height="10" fill="#000000"/>
<rect x="920" y="910" width="10" height="10" fill="#000000"/>
<rect x="960" y="910" width="10" height="10" fill="#000000"/>
<rect x="1160" y="910" width="10" height="10" fill="#000000"/>
<rect x="670" y="920" width="10" height="10" fill="#000000"/>
<rect x="870" y="920" width="10" height="10" fill="#000000"/>
<rect x="910" y="920" width="10" height="10" fill="#000000"/>
<rect x="920" y="920" width="10" height="10" fill="#000000"/>
<rect x="930" y="920" width="10" height="10" fill="#000000"/>
<rect x="970" y="920" width="10" height="10" fill="#000000"/>
<rect x="1170" y="920" width="10" height="10" fill="#000000"/>
<rect x="680" y="930" width="10" height="10" fill="#000000"/>
<rect x="880" y="930" width="10" height="10" fill="#000000"/>
<rect x="920" y="930" width="10" height="10" fill="#000000"/>
<rect x="930" y="930" width="10" height="10" fill="#000000"/>
<rect x="940" y="930" width="10" height="10" fill="#000000"/>
<rect x="980" y="930" width="10" height="10" fill="#000000"/>
<rect x="1180" y="930" width="10" height="10" fill="#000000"/>
<rect x="690" y="940" width="10" height="10" fill="#000000"/>
<rect x="890" y="940" width="10" height="10" fill="#000000"/>
<rect x="930" y="940" width="10" height="10" fill="#000000"/>
<rect x="940" y="940" width="10" height="10" fill="#000000"/>
<rect x="990" y="940" width="10" height="10" fill="#000000"/>
<rect x="1190" y="940" width="10" height="10" fill="#000000"/>
<rect x="700" y="950" width="10" height="10" fill="#000000"/>
<rect x="900" y="950" width="10" height="10" fill="#000000"/>
<rect x="950" y="950" width="10" height="10" fill="#000000"/>
<rect x="960" y="950" width="10" height="10" fill="#000000"/>
<rect x="1200" y="950" width="10" height="10" fill="#000000"/>
<rect x="710" y="960" width="10" height="10" fill="#000000"/>
<rect x="910" y="960" width="10" height="10" fill="#000000"/>
<rect x="950" y="960" width="10" height="10" fill="#000000"/>
<rect x="960" y="960" width="10" height="10" fill="#000000"/>
<rect x="970" y="960" width="10" height="10" fill="#000000"/>
<rect x="1210" y="960" width="10" height="10" fill="#000000"/>
<rect x="720" y="970" width="10" height="10" fill="#000000"/>
<rect x="920" y="970" width="10" height="10" fill="#000000"/>
<rect x="960" y="970" width="10" height="10" fill="#000000"/>
<rect x="970" y="970" width="10" height="10" fill="#000000"/>
<rect x="980" y="970" width="10" height="10" fill="#000000"/>
<rect x="1220" y="970" width="10" height="10" fill="#000000"/>
<rect x="730" y="980" width="10" height="10" fill="#000000"/>
<rect x="930" y="980" width="10" height="10" fill="#000000"/>
<rect x="970" y="980" width="10" height="10" fill="#000000"/>
<rect x="980" y="980" width="10" height="10" fill="#000000"/>
<rect x="990" y="980" width="10" height="10" fill="#000000"/>
<rect x="1230" y="980" width="10" height="10" fill="#000000"/>
<rect x="740" y="990" width="10" height="10" fill="#000000"/>
<rect x="940" y="990" width="10" height="10" fill="#000000"/>
<rect x="980" y="990" width="10" height="10" fill="#000000"/>
<rect x="990" y="990" width="10" height="10" fill="#000000"/>
<rect x="1240" y="990" width="10" height="10" fill="#000000"/>
<rect x="750" y="1000" width="10" height="10" fill="#000000"/>
<rect x="1000" y="1000" width="10" height="10" fill="#000000"/>
<rect x="1010" y="1000" width="10" height="10" fill="#000000"/>
<rect x="1050" y="1000" width="10" height="10" fill="#000000"/>
<rect x="760" y="1010" width="10" height="10" fill="#000000"/>
<rect x="1000" y="1010" width="10" height="10" fill="#000000"/>
<rect x="1010" y="1010" width="10" height="10" fill="#000000"/>
<rect x="1020" y="1010" width="10" height="10" fill="#000000"/>
<rect x="1060" y="1010" width="10" height="10" fill="#000000"/>
<rect x="770" y="1020" width="10" height="10" fill="#000000"/>
<rect x="1010" y="1020" width="10" height="10" fill="#000000"/>
<rect x="1020" y="1020" width="10" height="10" fill="#000000"/>
<rect x="1030" y="1020" width="10" height="10" fill="#000000"/>
<rect x="1070" y="1020" width="10" height="10" fill="#000000"/>
<rect x="780" y="1030" width="10" height="10" fill="#000000"/>
<rect x="1020" y="1030" width="10" height="10" fill="#000000"/>
<rect x="1030" y="1030" width="10" height="10" fill="#000000"/>
<rect x="1040" y="1030" width="10" height="10" fill="#000000"/>
<rect x="1080" y="1030" width="10" height="10" fill="#000000"/>
<rect x="790" y="1040" width="10" height="10" fill="#000000"/>
<rect x="1030" y="1040" width="10" height="10" fill="#000000"/>
<rect x="1040" y="1040" width="10" height="10" fill="#000000"/>
<rect x="1090" y="1040" width="10" height="10" fill="#000000"/>
<rect x="800" y="1050" width="10" height="10" fill="#000000"/>
<rect x="1000" y="1050" width="10" height="10" fill="#000000"/>
<rect x="1050" y="1050" width="10" height="10" fill="#000000"/>
<rect x="1060" y="1050" width="10" height="10" fill="#000000"/>
<rect x="1100" y="1050" width="10" height="10" fill="#000000"/>
<rect x="810" y="1060" width="10" height="10" fill="#000000"/>
<rect x="1010" y="1060" width="10" height="10" fill="#000000"/>
<rect x="1050" y="1060" width="10" height="10" fill="#000000"/>
<rect x="1060" y="1060" width="10" height="10" fill="#000000"/>
<rect x="1070" y="1060" width="10" height="10" fill="#000000"/>
<rect x="1110" y="1060" width="10" height="10" fill="#000000"/>
<rect x="820" y="1070" width="10" height="10" fill="#000000"/>
<rect x="1020" y="1070" width="10" height="10" fill="#000000"/>
<rect x="1060" y="1070" width="10" height="10" fill="#000000"/>
<rect x="1070" y="1070" width="10" height="10" fill="#000000"/>
<rect x="1080" y="1070" width="10" height="10" fill="#000000"/>
<rect x="1120" y="1070" width="10" height="10" fill="#000000"/>
<rect x="830" y="1080" width="10" height="10" fill="#000000"/>
<rect x="1030" y="1080" width="10" height="10" fill="#000000"/>
<rect x="1070" y="1080" width="10" height="10" fill="#000000"/>
<rect x="1080" y="1080" width="10" height="10" fill="#000000"/>
<rect x="1090" y="1080" width="10" height="10" fill="#000000"/>
<rect x="1130" y="1080" width="10" height="10" fill="#000000"/>
<rect x="840" y="1090" width="10" height="10" fill="#000000"/>
<rect x="1040" y="1090" width="10" height="10" fill="#000000"/>
<rect x="1080" y="1090" width="10" height="10" fill="#000000"/>
<rect x="1090" y="1090" width="10" height="10" fill="#000000"/>
<rect x="1140" y="1090" width="10" height="10" fill="#000000"/>
<rect x="850" y="1100" width="10" height="10" fill="#000000"/>
<rect x="1050" y="1100" width="10" height="10" fill="#000000"/>
<rect x="1100" y="1100" width="10" height="10" fill="#000000"/>
<rect x="1110" y="1100" width="10" height="10" fill="#000000"/>
<rect x="1150" y="1100" width="10" height="10" fill="#000000"/>
<rect x="860" y="1110" width="10" height="10" fill="#000000"/>
<rect x="1060" y="1110" width="10" height="10" fill="#000000"/>
<rect x="1100" y="1110" width="10" height="10" fill="#000000"/>
<rect x="1110" y="1110" width="10" height="10" fill="#000000"/>
<rect x="1120" y="1110" width="10" height="10" fill="#000000"/>
<rect x="1160" y="1110" width="10" height="10" fill="#000000"/>
<rect x="870" y="1120" width="10" height="10" fill="#000000"/>
<rect x="1070" y="1120" width="10" height="10" fill="#000000"/>
<rect x="1110" y="1120" width="10" height="10" fill="#000000"/>
<rect x="1120" y="1120" width="10" height="10" fill="#000000"/>
<rect x="1130" y="1120" width="10" height="10" fill="#000000"/>
<rect x="1170" y="1120" width="10" height="10" fill="#000000"/>
<rect x="880" y="1130" width="10" height="10" fill="#000000"/>
<rect x="1080" y="1130" width="10" height="10" fill="#000000"/>
<rect x="1120" y="1130" width="10" height="10" fill="#000000"/>
<rect x="1130" y="1130" width="10" height="10" fill="#000000"/>
<rect x="1140" y="1130" width="10" height="10" fill="#000000"/>
<rect x="1180" y="1130" width="10" height="10" fill="#000000"/>
<rect x="890" y="1140" width="10" height="10" fill="#000000"/>
<rect x="1090" y="1140" width="10" height="10" fill="#000000"/>
<rect x="1130" y="1140" width="10" height="10" fill="#000000"/>
<rect x="1140" y="1140" width="10" height="10" fill="#000000"/>
<rect x="1190" y="1140" width="10" height="10" fill="#000000"/>
<rect x="900" y="1150" width="10" height="10" fill="#000000"/>
<rect x="1100" y="1150" width="10" height="10" fill="#000000"/>
<rect x="1150" y="1150" width="10" height="10" fill="#000000"/>
<rect x="1160" y="1150" width="10" height="10" fill="#000000"/>
<rect x="1200" y="1150" width="10" height="10" fill="#000000"/>
<rect x="910" y="1160" width="10" height="10" fill="#000000"/>
<rect x="1110" y="1160" width="10" height="10" fill="#000000"/>
<rect x="1150" y="1160" width="10" height="10" fill="#000000"/>
<rect x="1160" y="1160" width="10" height="10" fill="#000000"/>
<rect x="1170" y="1160" width="10" height="10" fill="#000000"/>
<rect x="1210" y="1160" width="10" height="10" fill="#000000"/>
<rect x="920" y="1170" width="10" height="10" fill="#000000"/>
<rect x="1120" y="1170" width="10" height="10" fill="#000000"/>
<rect x="1160" y="1170" width="10" height="10" fill="#000000"/>
<rect x="1170" y="1170" width="10" height="10" fill="#000000"/>
<rect x="1180" y="1170" width="10" height="10" fill="#000000"/>
<rect x="1220" y="1170" width="10" height="10" fill="#000000"/>
<rect x="930" y="1180" width="10" height="10" fill="#000000"/>
<rect x="1130" y="1180" width="10" height="10" fill="#000000"/>
<rect x="1170" y="1180" width="10" height="10" fill="#000000"/>
<rect x="1180" y="1180" width="10" height="10" fill="#000000"/>
<rect x="1190" y="1180" width="10" height="10" fill="#000000"/>
<rect x="1230" y="1180" width="10" height="10" fill="#000000"/>
<rect x="940" y="1190" width="10" height="10" fill="#000000"/>
<rect x="1140" y="1190" width="10" height="10" fill="#000000"/>
<rect x="1180" y="1190" width="10" height="10" fill="#000000"/>
<rect x="1190" y="1190" width="10" height="10" fill="#000000"/>
<rect x="1240" y="1190" width="10" height="10" fill="#000000"/>
<rect x="950" y="1200" width="10" height="10" fill="#000000"/>
<rect x="1150" y="1200" width="10" height="10" fill="#000000"/>
<rect x="1200" y="1200" width="10" height="10" fill="#000000"/>
<rect x="1210" y="1200" width="10" height="10" fill="#000000"/>
<rect x="960" y="1210" width="10" height="10" fill="#000000"/>
<rect x="1160" y="1210" width="10" height="10" fill="#000000"/>
<rect x="1200" y="1210" width="10" height="10" fill="#000000"/>
<rect x="1210" y="1210" width="10" height="10" fill="#000000"/>
<rect x="1220" y="1210" width="10" height="10" fill="#000000"/>
<rect x="970" y="1220" width="10" height="10" fill="#000000"/>
<rect x="1170" y="1220" width="10" height="10" fill="#000000"/>
<rect x="1210" y="1220" width="10" height="10" fill="#000000"/>
<rect x="1220" y="1220" width="10" height="10" fill="#000000"/>
<rect x="1230" y="1220" width="10" height="10" fill="#000000"/>
<rect x="980" y="1230" width="10" height="10" fill="#000000"/>
<rect x="1180" y="1230" width="10" height="10" fill="#000000"/>
<rect x="1220" y="1230" width="10" height="10" fill="#000000"/>
<rect x="1230" y="1230" width="10" height="10" fill="#000000"/>
<rect x="1240" y="1230" width="10" height="10" fill="#000000"/>
<rect x="990" y="1240" width="10" height="10" fill="#000000"/>
<rect x="1190" y="1240" width="10" height="10" fill="#000000"/>
<rect x="1230" y="1240" width="10" height="10" fill="#000000"/>
<rect x="1240" y="1240" width="10" height="10" fill="#000000"/>
</svg>
</g>
</svg>
